<svg width="322" height="466" viewBox="0 0 322 466" fill="none" xmlns="http://www.w3.org/2000/svg">
<path d="M277.644 124.324L284.163 115.844L209.051 58.205L202.599 66.3537L196.161 74.6087L233.577 103.607C254.203 119.594 271.113 132.699 271.113 132.699C271.113 132.699 274.099 128.871 277.644 124.324Z" fill="#D22828"/>
<path d="M290.315 63.5646L273.513 50.4461L256.604 37.3409L245.233 52.043L233.742 66.6521L250.532 79.6644L267.307 92.5704L290.315 63.5646Z" fill="#D22828"/>
<path d="M290.325 63.5634L273.522 50.4448L256.613 37.3396L245.242 52.0417L233.752 66.6509L250.541 79.6632L267.317 92.5691L290.325 63.5634Z" fill="#D22828"/>
<path d="M307.447 43.6688C313.419 36.012 318.325 29.3523 318.285 29.0335C318.192 28.2894 286.186 3.57949 284.96 3.30114C284.52 3.24824 279.148 9.64242 272.989 17.5385L261.792 31.895L278.581 44.9073C287.815 52.064 295.903 57.8528 295.903 57.8528C296.223 57.8128 301.382 51.4453 307.447 43.6688Z" fill="#D22828"/>
<path d="M162.711 225L194.795 256.939M194.795 225L162.711 256.939" stroke="#D22828" stroke-width="8"/>
<path d="M82.5 225L114.584 256.939M114.584 225L82.5 256.939" stroke="#D22828" stroke-width="8"/>
<path d="M139 202.739C107.284 202.281 76.025 210.182 48.2015 225.639L47.4 237.089C47.4 251.173 50.7205 265.027 57.018 277.622C111.361 269.361 166.639 269.361 220.982 277.622C227.279 265.027 230.6 251.173 230.6 237.089L229.798 225.639C202.057 210.194 170.748 202.298 139 202.739ZM139 122.589C154.036 122.589 168.925 125.551 182.817 131.305C196.709 137.059 209.331 145.493 219.964 156.126C230.596 166.758 239.03 179.38 244.784 193.272C250.538 207.164 253.5 222.053 253.5 237.089C253.5 267.457 241.437 296.58 219.964 318.053C198.491 339.526 169.367 351.589 139 351.589C123.964 351.589 109.075 348.628 95.1827 342.873C81.291 337.119 68.6686 328.685 58.0363 318.053C36.5634 296.58 24.5 267.457 24.5 237.089C24.5 206.722 36.5634 177.598 58.0363 156.126C79.5092 134.653 108.633 122.589 139 122.589Z" fill="#D22828"/>
<path fill-rule="evenodd" clip-rule="evenodd" d="M242.801 121.877C242.839 122.194 237.888 128.787 231.863 136.365C231.053 137.384 229.874 138.885 228.438 140.722C225.363 137.745 222.128 134.924 218.746 132.272C210.718 125.979 201.954 120.716 192.663 116.59L197.591 110.201C203.804 102.387 209.22 96.0605 209.659 96.1155C210.883 96.399 242.713 121.137 242.801 121.877Z" fill="#D22828"/>
<path fill-rule="evenodd" clip-rule="evenodd" d="M32.7491 313.229L0.5 351.81L1.25726 380.753L2.12271 409.589L57.801 341.934C55.1276 339.691 52.5467 337.332 50.0661 334.862C43.4425 328.269 37.6479 321.004 32.7491 313.229Z" fill="#D22828"/>
<path d="M70.4313 361.595L74.3479 364.142C73.4345 365.375 72.3398 366.285 71.0637 366.871C69.7963 367.464 68.422 367.676 66.9408 367.508C65.4683 367.346 63.9504 366.756 62.3873 365.74C61.1647 364.945 60.2051 364.022 59.5083 362.973C58.8172 361.915 58.3851 360.764 58.212 359.521C58.0476 358.283 58.1527 356.985 58.5272 355.625C58.9017 354.266 59.5432 352.888 60.4518 351.49L61.3121 350.167C62.2207 348.77 63.2247 347.627 64.324 346.739C65.4377 345.848 66.5979 345.23 67.8045 344.884C69.0199 344.543 70.2514 344.474 71.499 344.677C72.7466 344.879 73.9685 345.369 75.1649 346.147C76.7543 347.181 77.9073 348.341 78.6241 349.627C79.3497 350.919 79.6843 352.267 79.6282 353.672C79.5807 355.083 79.1979 356.474 78.4797 357.846L74.55 355.29C75.0061 354.493 75.2763 353.743 75.3607 353.04C75.4508 352.329 75.3176 351.664 74.9609 351.047C74.6187 350.427 74.0109 349.833 73.1376 349.265C72.4827 348.839 71.8312 348.589 71.1832 348.516C70.5351 348.442 69.8833 348.547 69.2278 348.829C68.5723 349.111 67.9146 349.578 67.2546 350.229C66.609 350.878 65.9569 351.709 65.2982 352.722L64.4208 354.071C63.7791 355.058 63.2883 355.975 62.9484 356.823C62.6142 357.662 62.4324 358.438 62.403 359.152C62.388 359.863 62.5398 360.508 62.8585 361.088C63.1916 361.665 63.7074 362.181 64.4061 362.635C65.2269 363.169 65.9889 363.478 66.6919 363.562C67.395 363.647 68.0538 363.522 68.6683 363.189C69.2915 362.861 69.8791 362.33 70.4313 361.595Z" fill="#292929"/>
<path d="M90.8292 361.684L83.8842 377.098L79.7672 375.243L86.7121 359.829L90.8292 361.684ZM95.7867 363.918L94.3553 367.095L80.3945 360.804L81.8259 357.628L95.7867 363.918Z" fill="#292929"/>
<path d="M102.511 369.619L96.8709 388.97L92.5506 387.711L99.1001 365.239L103.105 366.407L102.511 369.619ZM111.383 377.429L111.291 377.744C110.947 378.924 110.488 379.978 109.914 380.907C109.349 381.838 108.693 382.602 107.944 383.197C107.198 383.783 106.369 384.17 105.457 384.36C104.557 384.543 103.598 384.485 102.577 384.188C101.587 383.9 100.786 383.449 100.172 382.836C99.5587 382.223 99.1069 381.484 98.8168 380.618C98.5395 379.745 98.3908 378.785 98.3706 377.738C98.3504 376.69 98.4206 375.593 98.5812 374.446L98.8217 373.621C99.3256 372.488 99.8705 371.475 100.456 370.582C101.045 369.68 101.689 368.94 102.389 368.363C103.102 367.778 103.876 367.391 104.713 367.201C105.56 367.014 106.473 367.063 107.453 367.348C108.483 367.649 109.331 368.107 109.998 368.725C110.674 369.345 111.171 370.098 111.488 370.982C111.815 371.869 111.967 372.858 111.942 373.946C111.928 375.038 111.742 376.199 111.383 377.429ZM106.956 376.48L107.048 376.165C107.249 375.475 107.374 374.823 107.423 374.208C107.485 373.586 107.455 373.018 107.333 372.505C107.222 371.995 107.001 371.562 106.671 371.205C106.353 370.842 105.915 370.578 105.355 370.415C104.765 370.243 104.232 370.191 103.757 370.259C103.291 370.329 102.876 370.506 102.511 370.791C102.146 371.075 101.826 371.448 101.55 371.91C101.274 372.372 101.03 372.914 100.816 373.535L100.208 375.62C100.043 376.375 99.9888 377.081 100.047 377.738C100.108 378.385 100.329 378.949 100.71 379.428C101.091 379.908 101.671 380.262 102.451 380.489C103.021 380.656 103.538 380.67 104.001 380.534C104.466 380.388 104.885 380.125 105.256 379.744C105.637 379.367 105.964 378.898 106.236 378.337C106.518 377.779 106.758 377.16 106.956 376.48Z" fill="#292929"/>
<path d="M124.456 384.521L125.497 377.062C125.572 376.526 125.548 376.055 125.426 375.648C125.306 375.232 125.075 374.889 124.734 374.621C124.403 374.354 123.949 374.18 123.371 374.099C122.876 374.03 122.435 374.058 122.05 374.183C121.666 374.298 121.353 374.501 121.113 374.794C120.873 375.076 120.724 375.428 120.665 375.851L116.208 375.229C116.308 374.517 116.567 373.865 116.987 373.271C117.406 372.677 117.964 372.182 118.661 371.785C119.36 371.378 120.162 371.095 121.067 370.938C121.983 370.782 122.982 370.779 124.066 370.93C125.366 371.112 126.491 371.49 127.441 372.064C128.392 372.639 129.095 373.4 129.552 374.347C130.019 375.296 130.162 376.42 129.981 377.72L128.98 384.885C128.852 385.803 128.804 386.564 128.835 387.168C128.868 387.761 128.962 388.29 129.119 388.753L129.082 389.017L124.579 388.388C124.425 387.904 124.339 387.313 124.321 386.616C124.314 385.911 124.359 385.212 124.456 384.521ZM125.94 378.181L125.619 380.708L123.128 380.36C122.54 380.278 122.02 380.274 121.568 380.347C121.116 380.421 120.733 380.562 120.42 380.771C120.108 380.969 119.863 381.219 119.684 381.52C119.516 381.823 119.405 382.165 119.352 382.547C119.298 382.928 119.338 383.286 119.47 383.62C119.604 383.944 119.823 384.216 120.129 384.438C120.436 384.649 120.811 384.785 121.255 384.847C121.926 384.941 122.527 384.888 123.06 384.689C123.592 384.49 124.02 384.213 124.343 383.859C124.677 383.506 124.873 383.154 124.932 382.805L125.845 384.857C125.62 385.257 125.332 385.664 124.98 386.077C124.638 386.492 124.222 386.871 123.733 387.213C123.245 387.544 122.679 387.797 122.034 387.969C121.391 388.132 120.651 388.155 119.816 388.038C118.753 387.89 117.818 387.544 117.01 387C116.215 386.447 115.616 385.759 115.216 384.935C114.827 384.103 114.701 383.201 114.836 382.232C114.959 381.355 115.232 380.599 115.658 379.964C116.083 379.329 116.648 378.824 117.352 378.449C118.068 378.066 118.928 377.823 119.931 377.721C120.935 377.609 122.077 377.642 123.356 377.82L125.94 378.181Z" fill="#292929"/>
<path d="M147.436 379.437L147.464 382.937L138.87 383.004L138.843 379.504L147.436 379.437ZM140.29 372.664L140.422 389.57L135.922 389.605L135.79 372.699L140.29 372.664ZM150.43 372.585L150.562 389.491L146.046 389.526L145.914 372.62L150.43 372.585Z" fill="#292929"/>
<path d="M161.835 382.072L165.735 370.677L170.178 369.958L172.88 386.647L168.438 387.366L166.737 376.862L162.839 388.273L158.397 388.992L155.694 372.303L160.137 371.584L161.835 382.072Z" fill="#292929"/>
<path d="M180.543 385.017L175.269 368.954L179.545 367.551L183.722 380.273L189.096 378.508L184.919 365.786L189.209 364.377L194.483 380.44L180.543 385.017ZM195.796 376.325L198.17 384.508L194.192 385.815L192.627 381.049L190.831 381.639L189.739 378.314L195.796 376.325Z" fill="#292929"/>
<path d="M209.082 369.719L205.682 362.998C205.437 362.515 205.149 362.141 204.817 361.877C204.48 361.604 204.095 361.455 203.662 361.429C203.238 361.398 202.766 361.515 202.245 361.778C201.799 362.004 201.453 362.278 201.208 362.6C200.958 362.914 200.817 363.259 200.786 363.637C200.751 364.005 200.83 364.379 201.022 364.76L197.007 366.792C196.683 366.151 196.523 365.467 196.529 364.74C196.535 364.013 196.711 363.288 197.057 362.564C197.398 361.831 197.896 361.142 198.549 360.496C199.212 359.845 200.032 359.273 201.008 358.779C202.179 358.186 203.319 357.855 204.427 357.784C205.536 357.714 206.548 357.937 207.463 358.455C208.388 358.968 209.147 359.81 209.739 360.981L213.005 367.436C213.424 368.263 213.818 368.916 214.188 369.394C214.554 369.863 214.933 370.243 215.326 370.534L215.446 370.771L211.388 372.824C210.986 372.514 210.579 372.078 210.166 371.516C209.758 370.941 209.397 370.341 209.082 369.719ZM206.684 363.664L207.862 365.923L205.617 367.059C205.087 367.327 204.658 367.62 204.329 367.938C203.999 368.257 203.766 368.591 203.628 368.941C203.485 369.282 203.426 369.627 203.451 369.976C203.485 370.32 203.589 370.665 203.763 371.009C203.937 371.352 204.174 371.624 204.473 371.823C204.767 372.012 205.103 372.111 205.48 372.118C205.853 372.117 206.239 372.015 206.639 371.812C207.243 371.507 207.707 371.12 208.031 370.653C208.355 370.186 208.548 369.714 208.611 369.239C208.684 368.758 208.644 368.358 208.494 368.037L210.414 369.202C210.458 369.658 210.453 370.157 210.4 370.698C210.356 371.234 210.231 371.781 210.024 372.341C209.812 372.892 209.491 373.422 209.06 373.932C208.624 374.433 208.03 374.874 207.277 375.254C206.32 375.739 205.354 375.988 204.381 376.002C203.412 376.002 202.528 375.778 201.729 375.33C200.935 374.868 200.317 374.2 199.875 373.326C199.475 372.536 199.269 371.759 199.256 370.995C199.243 370.231 199.419 369.494 199.784 368.784C200.153 368.06 200.72 367.371 201.486 366.715C202.247 366.05 203.203 365.426 204.356 364.842L206.684 363.664Z" fill="#292929"/>
<path d="M232.776 346.204L235.005 348.903L228.379 354.376L226.15 351.677L232.776 346.204ZM222.958 345.457L233.725 358.492L230.256 361.358L219.489 348.323L222.958 345.457ZM230.777 338.999L241.544 352.034L238.062 354.91L227.295 341.875L230.777 338.999Z" fill="#292929"/>
<path d="M252.608 341.237C251.728 342.211 250.784 342.945 249.777 343.439C248.762 343.925 247.731 344.188 246.686 344.226C245.648 344.257 244.632 344.083 243.64 343.706C242.639 343.321 241.722 342.752 240.887 341.998L240.423 341.579C239.472 340.72 238.725 339.799 238.181 338.816C237.637 337.833 237.302 336.829 237.176 335.803C237.058 334.769 237.172 333.749 237.519 332.743C237.858 331.73 238.44 330.768 239.264 329.856C240.067 328.967 240.926 328.311 241.842 327.889C242.757 327.466 243.694 327.267 244.654 327.292C245.622 327.31 246.592 327.541 247.566 327.985C248.532 328.423 249.475 329.058 250.395 329.889L251.786 331.146L242.778 341.116L240.552 339.105L246.596 332.416L246.341 332.185C245.877 331.766 245.387 331.478 244.87 331.319C244.352 331.147 243.835 331.128 243.318 331.265C242.802 331.402 242.309 331.73 241.841 332.247C241.443 332.688 241.198 333.154 241.105 333.645C241.012 334.137 241.048 334.64 241.215 335.156C241.388 335.663 241.665 336.18 242.046 336.706C242.425 337.218 242.894 337.725 243.45 338.228L243.914 338.647C244.416 339.101 244.943 339.45 245.494 339.695C246.052 339.933 246.604 340.059 247.15 340.076C247.704 340.085 248.237 339.977 248.749 339.752C249.268 339.519 249.748 339.159 250.188 338.672C250.733 338.069 251.123 337.404 251.359 336.676C251.594 335.934 251.643 335.157 251.506 334.346L254.735 334.315C254.876 334.92 254.915 335.607 254.851 336.378C254.793 337.14 254.591 337.94 254.242 338.776C253.886 339.605 253.341 340.426 252.608 341.237Z" fill="#292929"/>
<path d="M264.353 306.56L267.405 308.272L263.201 315.768L260.148 314.055L264.353 306.56ZM254.927 309.406L269.672 317.678L267.47 321.602L252.726 313.331L254.927 309.406ZM259.888 300.562L274.633 308.833L272.424 312.772L257.679 304.501L259.888 300.562Z" fill="#292929"/>
<path d="M277.684 292.017L270.642 289.346C270.136 289.154 269.671 289.072 269.248 289.101C268.815 289.126 268.43 289.275 268.092 289.548C267.758 289.811 267.488 290.216 267.281 290.761C267.104 291.228 267.033 291.664 267.069 292.068C267.096 292.468 267.225 292.818 267.456 293.117C267.678 293.413 267.989 293.637 268.388 293.788L266.792 297.996C266.12 297.741 265.541 297.343 265.056 296.802C264.57 296.261 264.211 295.607 263.979 294.839C263.737 294.068 263.639 293.223 263.687 292.305C263.738 291.378 263.958 290.403 264.346 289.38C264.811 288.153 265.43 287.14 266.201 286.34C266.972 285.541 267.87 285.024 268.895 284.789C269.924 284.544 271.052 284.655 272.279 285.12L279.043 287.687C279.909 288.015 280.641 288.232 281.237 288.335C281.823 288.435 282.359 288.46 282.846 288.411L283.094 288.505L281.481 292.756C280.975 292.798 280.38 292.751 279.697 292.614C279.007 292.464 278.336 292.265 277.684 292.017ZM271.832 289.162L274.224 290.036L273.332 292.388C273.121 292.943 273.001 293.449 272.973 293.907C272.944 294.364 272.997 294.768 273.131 295.12C273.255 295.468 273.444 295.762 273.698 296.003C273.956 296.235 274.264 296.419 274.625 296.556C274.985 296.692 275.343 296.733 275.698 296.679C276.043 296.62 276.358 296.467 276.641 296.218C276.916 295.965 277.132 295.629 277.291 295.211C277.531 294.578 277.613 293.979 277.537 293.416C277.462 292.852 277.287 292.374 277.013 291.98C276.742 291.577 276.443 291.307 276.116 291.172L278.319 290.738C278.66 291.045 278.992 291.416 279.317 291.852C279.646 292.277 279.923 292.767 280.147 293.32C280.362 293.869 280.483 294.477 280.508 295.144C280.524 295.808 280.382 296.534 280.083 297.323C279.702 298.326 279.157 299.161 278.447 299.827C277.731 300.481 276.928 300.911 276.035 301.118C275.137 301.312 274.231 301.236 273.315 300.888C272.487 300.574 271.811 300.139 271.287 299.584C270.762 299.028 270.395 298.366 270.186 297.595C269.971 296.812 269.925 295.92 270.048 294.919C270.162 293.915 270.448 292.809 270.906 291.602L271.832 289.162Z" fill="#292929"/>
<path d="M280.012 276.18L270.824 268.393L271.774 263.994L288.299 267.563L287.349 271.962L276.948 269.715L286.151 277.506L285.201 281.905L268.676 278.335L269.626 273.937L280.012 276.18ZM264.071 267.462L264.747 264.331C265.623 264.52 266.355 264.907 266.942 265.492C267.522 266.065 267.919 266.79 268.135 267.668C268.34 268.544 268.326 269.521 268.093 270.6C267.739 272.24 267.041 273.448 265.999 274.224C264.96 274.991 263.778 275.231 262.455 274.945L263.128 271.83C263.657 271.944 264.166 271.883 264.654 271.648C265.144 271.402 265.476 270.877 265.649 270.072C265.821 269.278 265.733 268.673 265.386 268.257C265.039 267.841 264.601 267.576 264.071 267.462Z" fill="#292929"/>
<path d="M272.868 255.953L273.112 251.459L278.752 251.907C280.56 252.047 282.103 252.339 283.383 252.784C284.663 253.229 285.728 253.788 286.578 254.46C287.429 255.132 288.097 255.883 288.584 256.713C289.061 257.531 289.406 258.385 289.619 259.273L289.573 260.115L286.107 259.974L286.085 259.503C285.563 258.943 285.051 258.477 284.55 258.105C284.038 257.733 283.496 257.438 282.923 257.219C282.351 257 281.708 256.829 280.995 256.707C280.283 256.575 279.454 256.472 278.508 256.4L272.868 255.953ZM272.934 254.736L273.542 243.549L290.423 244.466L290.18 248.944L276.902 248.223L276.538 254.932L272.934 254.736ZM286.007 260.954L287.044 241.857L295.625 242.323L295.381 246.817L290.31 246.541L289.767 256.542L294.838 256.818L294.588 261.42L286.007 260.954Z" fill="#292929"/>
<path d="M289.869 227.533C290.004 228.839 289.917 230.031 289.609 231.11C289.29 232.19 288.795 233.131 288.124 233.933C287.451 234.725 286.642 235.363 285.697 235.847C284.742 236.333 283.705 236.633 282.586 236.748L281.964 236.812C280.689 236.943 279.505 236.881 278.411 236.627C277.317 236.373 276.346 235.949 275.5 235.356C274.653 234.752 273.972 233.984 273.457 233.052C272.932 232.122 272.607 231.046 272.481 229.823C272.359 228.631 272.447 227.554 272.746 226.591C273.045 225.629 273.525 224.799 274.187 224.103C274.847 223.396 275.668 222.83 276.651 222.405C277.623 221.98 278.726 221.704 279.959 221.578L281.824 221.386L283.197 234.753L280.213 235.06L279.292 226.091L278.95 226.127C278.328 226.19 277.785 226.361 277.322 226.639C276.847 226.908 276.487 227.28 276.243 227.756C275.998 228.231 275.912 228.816 275.983 229.51C276.044 230.101 276.226 230.595 276.528 230.993C276.831 231.392 277.229 231.701 277.723 231.923C278.216 232.134 278.786 232.275 279.432 232.344C280.066 232.405 280.756 232.397 281.502 232.32L282.124 232.256C282.798 232.187 283.41 232.03 283.961 231.785C284.51 231.529 284.974 231.204 285.352 230.809C285.73 230.404 286.006 229.936 286.182 229.404C286.357 228.863 286.411 228.266 286.343 227.613C286.26 226.805 286.028 226.069 285.646 225.407C285.252 224.736 284.708 224.179 284.013 223.737L286.152 221.318C286.696 221.618 287.233 222.05 287.762 222.614C288.29 223.167 288.748 223.853 289.136 224.672C289.513 225.491 289.758 226.445 289.869 227.533Z" fill="#292929"/>
<path d="M275.226 205.593L278.619 204.735L280.727 213.066L277.334 213.925L275.226 205.593ZM270.347 214.145L286.736 209.998L287.84 214.36L271.451 218.508L270.347 214.145ZM267.859 204.315L284.249 200.167L285.356 204.545L268.967 208.692L267.859 204.315Z" fill="#292929"/>
<path d="M274.838 185.736L267.896 188.656C267.397 188.866 267.004 189.127 266.717 189.44C266.421 189.756 266.244 190.13 266.188 190.56C266.128 190.981 266.211 191.46 266.437 191.998C266.631 192.459 266.88 192.823 267.184 193.091C267.479 193.362 267.814 193.527 268.188 193.584C268.553 193.645 268.932 193.593 269.326 193.427L271.07 197.576C270.408 197.854 269.714 197.965 268.99 197.908C268.265 197.851 267.554 197.625 266.857 197.229C266.149 196.837 265.497 196.292 264.898 195.595C264.296 194.887 263.782 194.03 263.358 193.022C262.85 191.812 262.599 190.651 262.607 189.541C262.614 188.43 262.908 187.436 263.489 186.56C264.065 185.673 264.958 184.975 266.168 184.467L272.837 181.662C273.692 181.303 274.37 180.955 274.873 180.62C275.366 180.288 275.772 179.936 276.091 179.565L276.336 179.462L278.098 183.653C277.761 184.033 277.297 184.409 276.708 184.781C276.105 185.147 275.482 185.466 274.838 185.736ZM268.631 187.703L270.966 186.686L271.941 189.005C272.172 189.553 272.434 190.002 272.728 190.353C273.023 190.703 273.34 190.96 273.679 191.122C274.009 191.289 274.349 191.372 274.699 191.371C275.045 191.361 275.396 191.282 275.751 191.132C276.107 190.983 276.394 190.766 276.613 190.482C276.823 190.201 276.945 189.873 276.979 189.497C277.004 189.125 276.929 188.733 276.755 188.32C276.493 187.696 276.14 187.206 275.696 186.85C275.253 186.494 274.796 186.268 274.326 186.172C273.853 186.066 273.45 186.077 273.12 186.205L274.417 184.371C274.875 184.359 275.372 184.399 275.907 184.49C276.439 184.572 276.977 184.735 277.521 184.981C278.055 185.231 278.562 185.589 279.04 186.054C279.509 186.524 279.907 187.148 280.234 187.925C280.65 188.914 280.83 189.895 280.776 190.867C280.708 191.834 280.422 192.7 279.919 193.465C279.402 194.225 278.692 194.794 277.79 195.174C276.974 195.517 276.184 195.668 275.421 195.627C274.658 195.587 273.935 195.36 273.253 194.946C272.557 194.527 271.909 193.912 271.308 193.102C270.698 192.297 270.143 191.299 269.642 190.108L268.631 187.703Z" fill="#292929"/>
</svg>
