<svg width="25" height="24" viewBox="0 0 25 24" fill="none" xmlns="http://www.w3.org/2000/svg">
<g id="Add">
<path id="Vector" d="M14.75 19C14.75 17.4087 14.1179 15.8826 12.9926 14.7574C11.8674 13.6321 10.3413 13 8.75 13C7.1587 13 5.63258 13.6321 4.50736 14.7574C3.38214 15.8826 2.75 17.4087 2.75 19" stroke="white" stroke-width="2" stroke-linecap="round" stroke-linejoin="round"/>
<path id="Vector_2" d="M8.75 13C10.9591 13 12.75 11.2091 12.75 9C12.75 6.79086 10.9591 5 8.75 5C6.54086 5 4.75 6.79086 4.75 9C4.75 11.2091 6.54086 13 8.75 13Z" stroke="white" stroke-width="2" stroke-linecap="round" stroke-linejoin="round"/>
<path id="Vector_3" d="M19.75 8V14" stroke="white" stroke-width="2" stroke-linecap="round" stroke-linejoin="round"/>
<path id="Vector_4" d="M22.75 11H16.75" stroke="white" stroke-width="2" stroke-linecap="round" stroke-linejoin="round"/>
</g>
</svg>
