<svg width="133" height="134" viewBox="0 0 133 134" fill="none" xmlns="http://www.w3.org/2000/svg">
<path fill-rule="evenodd" clip-rule="evenodd" d="M42.4509 10.4221C41.1825 9.14463 39.6758 8.1326 38.0176 7.44434H24.2742C19.7964 7.44434 15.502 9.23651 12.3357 12.4266C9.16943 15.6167 7.39063 19.9434 7.39062 24.4549V75.5238C7.40035 77.7814 8.29482 79.9438 9.87932 81.5403C11.4638 83.1367 13.6101 84.0379 15.8509 84.0477H46.4778V20.2116C46.4815 18.3927 46.1275 16.5912 45.4363 14.911C44.7451 13.2308 43.7305 11.7051 42.4509 10.4221ZM28.4859 30.8571C27.8575 30.8571 27.2432 30.6694 26.7207 30.3176C26.1982 29.9659 25.791 29.4659 25.5505 28.881C25.3101 28.2961 25.2471 27.6525 25.3697 27.0315C25.4923 26.4105 25.7949 25.8402 26.2393 25.3925C26.6836 24.9448 27.2497 24.6399 27.8661 24.5164C28.4824 24.3929 29.1212 24.4563 29.7018 24.6986C30.2823 24.9408 30.7785 25.3511 31.1277 25.8776C31.4768 26.404 31.6631 27.0229 31.6631 27.656C31.6631 28.0764 31.5809 28.4926 31.4213 28.881C31.2616 29.2694 31.0276 29.6223 30.7325 29.9195C30.4375 30.2168 30.0872 30.4526 29.7018 30.6134C29.3163 30.7743 28.9031 30.8571 28.4859 30.8571Z" fill="#D22828"/>
<path fill-rule="evenodd" clip-rule="evenodd" d="M84.4577 37.2221C84.4577 38.0711 84.7924 38.8853 85.3883 39.4856C85.9841 40.086 86.7922 40.4232 87.6349 40.4232H125.614V75.5238C125.619 76.6445 125.403 77.7552 124.98 78.7915C124.556 79.8279 123.933 80.7696 123.147 81.5621C122.36 82.3546 121.426 82.9822 120.397 83.4089C119.368 83.8355 118.266 84.0526 117.154 84.0477H52.7963V20.2116C52.809 15.5579 51.2157 11.0446 48.2891 7.44434H108.73C110.947 7.44434 113.143 7.88433 115.191 8.73919C117.24 9.59405 119.101 10.847 120.669 12.4266C122.236 14.0062 123.48 15.8814 124.329 17.9452C125.177 20.009 125.614 22.221 125.614 24.4549V34.021H87.5979C86.7617 34.0308 85.963 34.3724 85.3752 34.9716C84.7873 35.5709 84.4576 36.3795 84.4577 37.2221Z" fill="#D22828"/>
<path fill-rule="evenodd" clip-rule="evenodd" d="M58.043 90.4131H74.9266V118.069C74.9266 120.32 74.0391 122.479 72.4594 124.07C70.8798 125.662 68.7373 126.556 66.5032 126.556H58.043V90.4131Z" fill="#D22828"/>
</svg>
