<svg width="123" height="228" viewBox="0 0 123 228" fill="none" xmlns="http://www.w3.org/2000/svg">
<path d="M98.0719 65.8479L99.1917 60.4777L51.6511 50.6033L50.4881 55.8051L49.3549 61.0531L73.1005 66.1044C86.1911 68.8891 96.9223 71.1719 96.9223 71.1719C96.9223 71.1719 97.4478 68.7381 98.0719 65.8479Z" fill="#D22828"/>
<path d="M90.3778 34.9611L79.6929 32.6483L68.9617 30.3655L66.9879 39.6907L64.938 48.9997L75.5931 51.2663L86.2184 53.4868L90.3778 34.9611Z" fill="#D22828"/>
<path d="M90.3819 34.9584L79.6969 32.6457L68.9657 30.3629L66.9919 39.6881L64.942 48.9971L75.5971 51.2637L86.2224 53.4842L90.3819 34.9584Z" fill="#D22828"/>
<path d="M93.8566 21.9521C94.9077 17.0843 95.6886 12.9149 95.5991 12.7765C95.3902 12.4537 75.0993 8.17704 74.471 8.32181C74.2561 8.39542 73.2006 12.5462 72.1166 17.5661L70.1459 26.693L80.801 28.9596C86.6613 30.2062 91.6874 31.0766 91.6874 31.0766C91.8262 30.9868 92.7891 26.8958 93.8566 21.9521Z" fill="#D22828"/>
<path fill-rule="evenodd" clip-rule="evenodd" d="M82.1728 72.3851C82.2609 72.5231 81.4439 76.6719 80.3509 81.5149C80.2236 82.0791 80.0491 82.8718 79.8398 83.8333L57.3963 83.2185L58.6894 77.0723C59.8166 72.0779 60.9075 67.9487 61.1227 67.8761C61.7512 67.7342 81.9672 72.0629 82.1728 72.3851ZM74.718 107.556L66.7003 107.336C71.0507 108.253 74.2958 108.884 74.4092 108.812C74.4289 108.799 74.5394 108.343 74.718 107.556Z" fill="#D22828"/>
<path fill-rule="evenodd" clip-rule="evenodd" d="M37.6904 171.479L32.6015 192.047L39.456 205.218L46.3365 218.316L57.5458 171.479L37.6904 171.479Z" fill="#D22828"/>
<path fill-rule="evenodd" clip-rule="evenodd" d="M8.72276 89C8.32359 89 8 89.3236 8 89.7228V166.697C8 167.096 8.32359 167.42 8.72276 167.42H108.103C108.502 167.42 108.825 167.096 108.825 166.697V89.7228C108.825 89.3236 108.502 89 108.103 89H8.72276ZM101.137 103.26C102.095 102.542 102.291 101.183 101.574 100.224C100.856 99.2656 99.4975 99.0699 98.5387 99.7873L58.3915 129.826L18.2443 99.7876C17.2854 99.0702 15.9266 99.2659 15.2092 100.225C14.4918 101.184 14.6875 102.542 15.6463 103.26L56.443 133.784C57.5982 134.648 59.1847 134.648 60.3399 133.784L101.137 103.26Z" fill="#D22828"/>
</svg>
