<svg width="153" height="166" viewBox="0 0 153 166" fill="none" xmlns="http://www.w3.org/2000/svg">
<path d="M35.9442 62.7263L31.3789 53.1715L48.1861 44.9951L52.2295 52.5162C50.7451 53.6749 38.268 61.5855 35.9442 62.7263Z" fill="#D22828"/>
<path d="M52.7851 28.8125L16.9297 46.2556L21.044 54.7129L56.8994 37.2698L52.7851 28.8125Z" fill="#D22828"/>
<path d="M41.055 30.3357L24.2478 38.5121L17.3906 24.4166L34.1978 16.2402L41.055 30.3357Z" fill="#D22828"/>
<path d="M9.71094 8.62953L16.2939 22.1612L33.1011 13.9848L26.5182 0.453125L9.71094 8.62953Z" fill="#D22828"/>
<path d="M108.86 97.9746H41.287V131.761L29.9062 143.142V148.832H120.241V143.142L108.86 131.761V97.9746Z" fill="#D22828"/>
<path d="M87.8801 152.744C87.8801 159.815 82.1479 165.547 75.0768 165.547C68.0057 165.547 62.2734 159.815 62.2734 152.744C62.2734 152.744 68.0057 152.744 75.0768 152.744C82.1479 152.744 87.8801 152.744 87.8801 152.744Z" fill="#D22828"/>
<path d="M0.746094 81.6957C26.9264 76.4791 59.4093 59.3735 72.863 42.3892C71.247 41.2165 68.0148 38.0218 68.0148 34.625C68.0148 30.3789 71.4086 26.1328 76.4992 26.1328C81.5898 26.1328 84.9835 30.3789 84.9835 34.625C84.9835 38.0218 81.6706 41.2165 80.0141 42.3892C103.285 67.623 135.89 78.5415 152.252 82.0596C140.738 91.2797 131.405 93.6656 128.738 93.706H25.8355C15.6543 93.706 4.86706 85.6991 0.746094 81.6957Z" fill="#D22828"/>
</svg>
