<svg width="24" height="24" viewBox="0 0 24 24" fill="none" xmlns="http://www.w3.org/2000/svg">
<g id="bank">
<path id="Vector" d="M16 11.9998C16 14.209 14.2091 15.9998 12 15.9998C9.79086 15.9998 8 14.209 8 11.9998C8 9.79068 9.79086 7.99982 12 7.99982C14.2091 7.99982 16 9.79068 16 11.9998ZM16 11.9998L16 13.4998C16 14.1629 16.2634 14.7988 16.7322 15.2676C17.2011 15.7365 17.837 15.9998 18.5 15.9998C19.163 15.9998 19.7989 15.7365 20.2678 15.2676C20.7366 14.7988 21 14.1629 21 13.4998V11.9998C21.0025 10.0659 20.382 8.18269 19.2304 6.62904C18.0788 5.07539 16.4574 3.934 14.6064 3.37395C12.7554 2.81389 10.7732 2.86497 8.95343 3.51961C7.13371 4.17425 5.57324 5.39763 4.50321 7.00852C3.43317 8.61942 2.91047 10.5321 3.01255 12.4633C3.11463 14.3945 3.83605 16.2415 5.06995 17.7306C6.30385 19.2197 7.98459 20.2718 9.86319 20.7309C11.7418 21.1901 13.7183 21.0319 15.5 20.2798" stroke="#55677D" stroke-width="2" stroke-linecap="round" stroke-linejoin="round"/>
</g>
</svg>
