<svg width="49" height="50" viewBox="0 0 49 50" fill="none" xmlns="http://www.w3.org/2000/svg">
<g id="Logo">
<path id="Vector" d="M15.823 27.0832C15.8025 26.354 16.1292 25.6457 16.6805 25.1665C18.2117 25.4998 19.6409 26.1457 20.9271 27.0832C20.9271 28.4998 19.7838 29.6665 18.375 29.6665C16.9663 29.6665 15.8434 28.5207 15.823 27.0832ZM28.073 27.0832C29.3592 26.1665 30.7884 25.5207 32.3196 25.1873C32.8709 25.6665 33.1975 26.3748 33.1771 27.0832C33.1771 28.5415 32.0338 29.7082 30.625 29.7082C29.2163 29.7082 28.073 28.5415 28.073 27.0832ZM24.5 18.7498C18.8446 18.6665 13.2709 20.104 8.30962 22.9165L8.16671 24.9998C8.16671 27.5623 8.75879 30.0832 9.88171 32.3748C19.5716 30.8718 29.4285 30.8718 39.1184 32.3748C40.2413 30.0832 40.8334 27.5623 40.8334 24.9998L40.6905 22.9165C35.7438 20.1062 30.1611 18.6695 24.5 18.7498ZM24.5 4.1665C27.1812 4.1665 29.8361 4.70537 32.3132 5.75235C34.7902 6.79932 37.0409 8.33389 38.9368 10.2684C40.8327 12.203 42.3366 14.4996 43.3626 17.0273C44.3886 19.5549 44.9167 22.264 44.9167 24.9998C44.9167 30.5252 42.7657 35.8242 38.9368 39.7312C35.1079 43.6382 29.9149 45.8332 24.5 45.8332C21.8189 45.8332 19.164 45.2943 16.6869 44.2473C14.2099 43.2004 11.9591 41.6658 10.0633 39.7312C6.23441 35.8242 4.08337 30.5252 4.08337 24.9998C4.08337 19.4745 6.23441 14.1755 10.0633 10.2684C13.8921 6.36144 19.0852 4.1665 24.5 4.1665Z" fill="#D22828"/>
</g>
</svg>
