<svg width="24" height="24" viewBox="0 0 24 24" fill="none" xmlns="http://www.w3.org/2000/svg">
<path d="M10.9578 10.2827C13.2649 10.2827 15.1353 8.4124 15.1353 6.10523C15.1353 3.79807 13.2649 1.92773 10.9578 1.92773C8.6506 1.92773 6.78027 3.79807 6.78027 6.10523C6.78027 8.4124 8.6506 10.2827 10.9578 10.2827Z" stroke="white" stroke-width="1.5"/>
<path d="M15.4947 13.3838C14.486 12.6525 12.3672 12.165 10.9572 12.165C9.84642 12.165 8.7465 12.3839 7.72029 12.8091C6.69409 13.2343 5.76171 13.8575 4.97643 14.6431C4.19115 15.4288 3.56834 16.3614 3.14359 17.3878C2.71885 18.4142 2.50048 19.5142 2.50098 20.625H13.7135" stroke="white" stroke-width="1.5"/>
<path d="M17.0175 22.0727C19.4904 22.0727 21.495 20.068 21.495 17.5952C21.495 15.1223 19.4904 13.1177 17.0175 13.1177C14.5447 13.1177 12.54 15.1223 12.54 17.5952C12.54 20.068 14.5447 22.0727 17.0175 22.0727Z" stroke="white" stroke-width="1.5"/>
<path d="M17.2422 14.9248V20.1748" stroke="white"/>
<path d="M14.6172 17.5498H19.8672" stroke="white"/>
</svg>
