<svg width="500" height="500" viewBox="0 0 500 500" fill="none" xmlns="http://www.w3.org/2000/svg">
<circle cx="250" cy="250" r="250" fill="#ADB5BD"/>
<path d="M176.475 266.75C176.302 260.712 179.07 254.848 183.741 250.88C196.716 253.64 208.826 258.988 219.725 266.75C219.725 278.48 210.037 288.14 198.1 288.14C186.163 288.14 176.648 278.652 176.475 266.75ZM280.275 266.75C291.174 259.16 303.284 253.812 316.259 251.053C320.93 255.02 323.698 260.885 323.525 266.75C323.525 278.825 313.837 288.485 301.9 288.485C289.963 288.485 280.275 278.825 280.275 266.75ZM250 197.75C202.079 197.06 154.85 208.962 112.811 232.25L111.6 249.5C111.6 270.717 116.617 291.59 126.132 310.565C208.239 298.12 291.761 298.12 373.868 310.565C383.383 291.59 388.4 270.717 388.4 249.5L387.189 232.25C345.274 208.981 297.969 197.085 250 197.75ZM250 77C272.719 77 295.215 81.4618 316.204 90.1308C337.194 98.7997 356.265 111.506 372.329 127.524C388.394 143.542 401.137 162.558 409.831 183.487C418.525 204.416 423 226.847 423 249.5C423 295.25 404.773 339.126 372.329 371.476C339.886 403.826 295.882 422 250 422C227.281 422 204.785 417.538 183.796 408.869C162.806 400.2 143.735 387.494 127.671 371.476C95.2267 339.126 77 295.25 77 249.5C77 203.75 95.2267 159.874 127.671 127.524C160.114 95.1741 204.118 77 250 77Z" fill="white"/>
</svg>
