<svg width="187" height="37" viewBox="0 0 187 37" fill="none" xmlns="http://www.w3.org/2000/svg">
<path d="M63.8586 28.2332V21.4111C63.8586 20.8809 63.7745 20.5321 63.6064 20.3647C63.4662 20.1973 63.1159 20.1136 62.5553 20.1136H50.3213C48.1071 20.1136 47 19.0115 47 16.8072V9.27354C47 7.06926 48.1071 5.96711 50.3213 5.96711H64.0688C66.283 5.96711 67.3901 7.06926 67.3901 9.27354V13.417H63.6905V9.73393C63.6905 9.17588 63.6064 8.8271 63.4382 8.68759C63.2981 8.52018 62.9477 8.43647 62.3872 8.43647H52.0029C51.4704 8.43647 51.1201 8.52018 50.9519 8.68759C50.7837 8.8271 50.6996 9.17588 50.6996 9.73393V16.3468C50.6996 16.9048 50.7837 17.2676 50.9519 17.435C51.1201 17.5745 51.4704 17.6442 52.0029 17.6442H64.195C66.4091 17.6442 67.5162 18.7464 67.5162 20.9507V28.6936C67.5162 30.8979 66.4091 32 64.195 32H50.4054C48.1912 32 47.0841 30.8979 47.0841 28.6936V24.5501H50.7837V28.2332C50.7837 28.7912 50.8678 29.154 51.036 29.3214C51.2041 29.4609 51.5545 29.5306 52.087 29.5306H62.5553C63.1159 29.5306 63.4662 29.4609 63.6064 29.3214C63.7745 29.154 63.8586 28.7912 63.8586 28.2332Z" fill="white"/>
<path d="M79.1801 29.5306H88.4292C88.9337 29.5306 89.2981 29.419 89.5223 29.1958C89.7465 28.9726 89.8586 28.5959 89.8586 28.0658V15.6353C89.8586 15.1051 89.7465 14.7285 89.5223 14.5052C89.2981 14.282 88.9337 14.1704 88.4292 14.1704H79.1801C78.6476 14.1704 78.2972 14.2541 78.1291 14.4215C77.9609 14.5889 77.8768 14.9377 77.8768 15.4679V28.2332C77.8768 28.7912 77.9609 29.154 78.1291 29.3214C78.2972 29.4609 78.6476 29.5306 79.1801 29.5306ZM89.8586 11.701H93.4742V32H89.8586V30.6607C89.4943 31.5536 88.7235 32 87.5463 32H77.5825C75.3683 32 74.2613 30.8979 74.2613 28.6936V15.0075C74.2613 12.8032 75.3683 11.701 77.5825 11.701H87.5463C88.7235 11.701 89.4943 12.1475 89.8586 13.0404V11.701Z" fill="white"/>
<path d="M101.04 32V4H104.655V32H101.04ZM121.724 11.701L110.541 21.7459L121.724 32H116.931L105.916 21.7459L116.931 11.701H121.724Z" fill="white"/>
<path d="M141.548 11.701H145.164V32H141.548V30.6607C141.184 31.5536 140.413 32 139.236 32H129.272C127.058 32 125.951 30.8979 125.951 28.6936V11.701H129.566V28.2332C129.566 28.7912 129.651 29.154 129.819 29.3214C129.987 29.4609 130.337 29.5306 130.87 29.5306H140.119C140.623 29.5306 140.988 29.419 141.212 29.1958C141.436 28.9726 141.548 28.5959 141.548 28.0658V11.701Z" fill="white"/>
<path d="M159.624 11.701H163.996V14.2541H159.078C157.256 14.2541 156.345 15.3004 156.345 17.3931V32H152.729V11.701H156.345V14.2541C156.793 12.5521 157.886 11.701 159.624 11.701Z" fill="white"/>
<path d="M172.706 29.5306H181.955C182.46 29.5306 182.824 29.419 183.048 29.1958C183.272 28.9726 183.384 28.5959 183.384 28.0658V15.6353C183.384 15.1051 183.272 14.7285 183.048 14.5052C182.824 14.282 182.46 14.1704 181.955 14.1704H172.706C172.173 14.1704 171.823 14.2541 171.655 14.4215C171.487 14.5889 171.403 14.9377 171.403 15.4679V28.2332C171.403 28.7912 171.487 29.154 171.655 29.3214C171.823 29.4609 172.173 29.5306 172.706 29.5306ZM183.384 11.701H187V32H183.384V30.6607C183.02 31.5536 182.249 32 181.072 32H171.108C168.894 32 167.787 30.8979 167.787 28.6936V15.0075C167.787 12.8032 168.894 11.701 171.108 11.701H181.072C182.249 11.701 183.02 12.1475 183.384 13.0404V11.701Z" fill="white"/>
<path d="M11.9479 20.0418C11.9325 19.5022 12.1792 18.9781 12.5954 18.6235C13.7517 18.8702 14.8308 19.3481 15.8021 20.0418C15.8021 21.0902 14.9387 21.9535 13.875 21.9535C12.8112 21.9535 11.9633 21.1056 11.9479 20.0418ZM21.1979 20.0418C22.1692 19.3635 23.2483 18.8856 24.4046 18.6389C24.8208 18.9935 25.0675 19.5177 25.0521 20.0418C25.0521 21.121 24.1887 21.9843 23.125 21.9843C22.0612 21.9843 21.1979 21.121 21.1979 20.0418ZM18.5 13.8752C14.2296 13.8135 10.0208 14.8772 6.27458 16.9585L6.16667 18.5002C6.16667 20.3964 6.61375 22.2618 7.46167 23.9577C14.7785 22.8454 22.2215 22.8454 29.5383 23.9577C30.3862 22.2618 30.8333 20.3964 30.8333 18.5002L30.7254 16.9585C26.9902 14.8789 22.7747 13.8157 18.5 13.8752ZM18.5 3.0835C20.5245 3.0835 22.5293 3.48226 24.3997 4.25702C26.2701 5.03178 27.9697 6.16736 29.4012 7.59893C30.8328 9.0305 31.9684 10.73 32.7431 12.6005C33.5179 14.4709 33.9167 16.4756 33.9167 18.5002C33.9167 22.5889 32.2924 26.5102 29.4012 29.4014C26.51 32.2926 22.5888 33.9168 18.5 33.9168C16.4755 33.9168 14.4707 33.5181 12.6003 32.7433C10.7299 31.9685 9.03034 30.833 7.59877 29.4014C4.70758 26.5102 3.08333 22.5889 3.08333 18.5002C3.08333 14.4114 4.70758 10.4901 7.59877 7.59893C10.49 4.70775 14.4112 3.0835 18.5 3.0835Z" fill="#D22828"/>
</svg>
